 <svg  version="1.0" xmlns="http://www.w3.org/2000/svg"  width="1350.000000pt" height="780.000000pt" viewBox="0 0 1350.000000 780.000000"  preserveAspectRatio="xMidYMid meet">  <g transform="translate(0.000000,780.000000) scale(0.100000,-0.100000)" fill="#ebebeb" stroke="none"> <path d="M9068 7615 c-2 -3 -31 -9 -64 -15 -110 -18 -275 -56 -374 -85 -30 -9 -77 -23 -105 -30 -61 -16 -110 -33 -152 -51 -17 -8 -36 -14 -42 -14 -6 0 -27 -7 -48 -16 -21 -9 -47 -20 -58 -25 -29 -11 -101 -42 -165 -70 -91 -40 -321 -159 -330 -171 -3 -4 -17 -12 -30 -18 -14 -5 -37 -18 -51 -28 -15 -9 -67 -42 -115 -72 -49 -30 -94 -59 -100 -65 -6 -5 -22 -17 -34 -25 -199 -134 -472 -377 -655 -585 -38 -44 -78 -89 -88 -100 -10 -11 -28 -33 -40 -49 -12 -15 -34 -42 -48 -60 -28 -35 -86 -112 -109 -146 -8 -12 -19 -28 -25 -34 -5 -7 -15 -21 -22 -31 -107 -176 -158 -263 -185 -316 -18 -35 -36 -65 -40 -67 -5 -2 -8 -8 -8 -14 0 -6 -20 -53 -45 -104 -24 -51 -47 -105 -51 -119 -3 -14 -10 -28 -15 -31 -5 -3 -9 -12 -9 -21 0 -8 -6 -29 -14 -46 -24 -56 -44 -111 -61 -167 -10 -30 -23 -73 -30 -95 -13 -40 -30 -100 -59 -205 -8 -30 -18 -75 -21 -100 -3 -25 -10 -58 -15 -75 -12 -42 -31 -181 -40 -300 -4 -55 -14 -167 -21 -248 -10 -120 -10 -176 0 -290 7 -78 16 -187 21 -242 4 -55 10 -111 14 -125 4 -14 11 -54 16 -90 20 -141 97 -453 131 -535 5 -11 16 -42 25 -70 39 -120 86 -232 187 -445 32 -68 51 -90 68 -79 23 14 189 10 239 -6 82 -28 153 -73 193 -122 10 -13 24 -29 31 -36 7 -6 23 -34 35 -62 13 -27 29 -61 35 -74 16 -34 15 -246 -1 -263 -7 -6 -13 -19 -13 -28 0 -8 -18 -43 -40 -78 -46 -72 -49 -60 40 -161 83 -94 207 -218 295 -296 44 -38 95 -84 115 -102 19 -17 51 -42 71 -56 19 -13 47 -34 62 -47 44 -39 186 -135 287 -196 52 -32 97 -60 100 -63 5 -6 59 -35 220 -116 129 -65 212 -103 243 -110 15 -4 30 -11 33 -16 3 -5 14 -9 26 -9 11 0 32 -6 46 -14 15 -8 56 -24 92 -36 36 -12 74 -26 85 -30 11 -5 40 -13 65 -20 25 -6 70 -18 100 -26 116 -32 349 -82 421 -90 l57 -6 7 61 c4 34 11 64 16 67 5 3 9 18 9 34 0 81 117 226 232 289 113 61 203 74 321 46 92 -21 158 -59 230 -130 84 -83 127 -169 136 -275 4 -44 10 -82 13 -86 17 -16 529 84 554 109 4 4 16 7 26 7 19 0 132 35 158 49 9 5 30 12 49 16 18 4 44 13 59 21 15 8 35 14 44 14 9 0 19 4 22 9 3 5 18 12 33 15 30 7 61 22 243 110 138 68 265 137 282 154 6 6 16 12 21 12 10 0 233 147 261 172 11 10 38 30 60 45 36 25 74 55 110 88 6 6 34 28 61 50 51 39 367 353 418 414 15 18 27 37 27 42 0 4 -13 22 -29 38 -16 16 -44 60 -62 98 -29 62 -32 77 -33 168 -1 97 0 102 38 177 83 165 224 252 424 261 65 3 87 8 102 23 18 18 130 231 130 247 0 7 17 48 56 134 8 17 14 38 14 46 0 9 4 18 9 22 5 3 13 20 17 37 3 18 10 39 15 48 10 18 56 165 76 240 91 347 122 591 122 960 0 360 -32 619 -115 930 -25 94 -75 254 -85 272 -5 10 -9 23 -9 30 -1 7 -9 31 -20 53 -11 22 -19 46 -20 53 0 7 -4 20 -10 30 -5 9 -19 40 -30 67 -41 97 -115 250 -163 335 -14 25 -35 62 -46 83 -12 21 -26 44 -31 50 -6 7 -33 46 -60 87 -88 135 -208 296 -260 350 -8 8 -40 44 -70 80 -77 90 -253 266 -330 331 -35 30 -81 69 -101 87 -21 19 -52 44 -71 58 -18 13 -46 34 -62 46 -37 30 -124 90 -206 144 -36 24 -69 47 -75 52 -78 63 -590 322 -638 322 -9 0 -19 5 -22 10 -3 6 -14 10 -23 10 -9 0 -29 7 -44 14 -16 8 -58 24 -95 36 -38 12 -77 26 -88 30 -11 5 -40 13 -65 20 -25 6 -70 18 -100 26 -112 30 -177 45 -235 54 -33 6 -71 14 -85 19 -14 5 -45 12 -70 15 -25 2 -55 8 -66 11 -20 6 -22 2 -29 -60 -4 -36 -13 -78 -21 -93 -8 -15 -14 -33 -14 -40 0 -25 -67 -118 -122 -167 -61 -56 -146 -105 -181 -105 -13 0 -28 -5 -34 -11 -13 -13 -171 -7 -228 9 -69 19 -122 50 -184 108 -59 55 -131 157 -131 187 0 8 -7 28 -15 43 -8 16 -15 53 -15 82 0 37 -4 52 -13 52 -8 0 -16 -2 -19 -5z m-550 -524 c2 -67 -1 -108 -9 -117 -8 -10 -34 -14 -85 -14 -98 0 -104 7 -104 116 0 123 2 125 108 122 l87 -3 3 -104z m353 92 c19 -22 26 -188 9 -208 -9 -11 -33 -15 -85 -15 -109 0 -105 -5 -105 119 0 59 3 111 7 114 3 4 41 7 83 7 60 0 81 -4 91 -17z m2265 -128 c25 -25 26 -30 22 -121 -3 -108 -7 -114 -81 -114 -42 0 -49 3 -57 26 -6 14 -10 40 -10 58 0 17 -5 37 -12 44 -9 9 -86 12 -283 12 -197 0 -274 -3 -283 -12 -7 -7 -12 -33 -12 -58 0 -57 -12 -70 -65 -70 -70 0 -80 14 -80 118 0 82 2 93 24 116 l24 26 394 0 394 0 25 -25z m-3362 -158 c18 -20 20 -31 16 -92 l-5 -70 -84 -3 c-61 -2 -87 1 -92 10 -12 19 -11 136 1 159 9 16 22 19 77 19 56 0 69 -4 87 -23z m297 2 c29 -20 30 -23 27 -92 l-3 -72 -90 0 -90 0 -3 74 c-4 93 9 111 81 111 34 0 58 -6 78 -21z m1796 -5 c40 -11 44 -56 41 -397 l-3 -319 -24 -19 c-22 -18 -43 -19 -354 -19 -293 0 -332 2 -349 17 -17 15 -18 40 -18 364 0 303 2 350 16 363 13 14 58 16 342 16 180 0 337 -3 349 -6z m1482 -168 c21 -19 21 -23 21 -551 0 -400 -3 -534 -12 -543 -17 -17 -1259 -17 -1276 0 -9 9 -12 145 -12 549 l0 538 22 16 c20 13 92 15 629 13 581 -3 608 -4 628 -22z m-2703 -28 c22 -23 24 -86 4 -99 -22 -13 -34 -11 -71 14 -26 17 -35 31 -37 58 -2 29 1 37 19 45 30 14 64 7 85 -18z m2928 21 c25 -12 36 -35 36 -79 0 -56 -54 -67 -94 -19 -30 35 -33 65 -9 91 19 21 33 22 67 7z m-2626 -7 c7 -5 15 -24 18 -44 5 -31 2 -38 -24 -57 -39 -27 -67 -27 -86 1 -22 31 -20 51 9 82 24 26 58 33 83 18z m-683 -68 c14 -14 15 -61 13 -431 -3 -397 -4 -415 -22 -429 -16 -12 -93 -14 -437 -14 -388 0 -417 1 -424 18 -7 18 -5 781 3 831 2 17 11 32 21 34 9 3 199 5 423 6 361 1 408 -1 423 -15z m3646 -221 c3 -24 9 -46 13 -50 4 -4 33 -10 63 -13 100 -9 102 -71 2 -80 l-53 -5 -2 -38 c-1 -46 -6 -51 -49 -51 -42 0 -47 4 -54 51 -6 37 -8 38 -51 41 -52 4 -70 16 -70 46 0 32 19 46 51 39 34 -7 59 11 59 41 0 36 29 68 58 64 23 -3 28 -9 33 -45z m-4640 21 c44 -7 59 -34 59 -100 0 -78 -8 -84 -109 -84 -102 0 -101 -1 -101 89 0 88 40 113 151 95z m1245 -19 c21 -22 25 -33 22 -77 -4 -63 -17 -72 -116 -82 -80 -7 -102 10 -102 82 0 94 5 98 113 101 49 1 62 -3 83 -24z m448 -107 c13 -51 -4 -70 -58 -66 -32 2 -44 9 -55 29 -13 24 -13 29 3 53 15 23 23 27 59 24 39 -3 43 -5 51 -40z m-2023 -189 c26 -26 20 -75 -12 -101 -30 -25 -56 -22 -75 7 -17 27 -14 76 7 102 17 20 56 16 80 -8z m375 -1 c5 -7 11 -37 15 -67 7 -47 5 -59 -13 -84 -21 -29 -23 -29 -86 -24 -88 9 -112 31 -112 103 0 84 0 84 100 84 59 0 91 -4 96 -12z m1222 -64 c3 -68 1 -73 -24 -93 -41 -32 -136 -30 -169 4 -26 25 -32 68 -19 134 l7 32 101 -3 101 -3 3 -71z m3842 -33 c11 -22 14 -290 2 -307 -14 -23 -89 -36 -149 -24 -31 5 -85 10 -120 10 -57 0 -64 2 -72 23 -10 27 -7 274 4 300 6 15 24 17 166 17 146 0 159 -1 169 -19z m-3412 -32 c15 -24 8 -72 -15 -94 -17 -18 -64 -20 -81 -3 -7 7 -12 27 -12 45 0 61 79 99 108 52z m2882 -86 c44 -38 16 -83 -51 -83 -32 0 -79 32 -79 53 0 43 91 63 130 30z m-2036 -38 c25 -23 27 -30 21 -68 -11 -66 -13 -67 -150 -67 -143 0 -151 4 -141 76 11 83 12 84 135 84 102 0 110 -1 135 -25z m-2880 -68 c25 -19 33 -89 11 -110 -21 -21 -59 -22 -79 -1 -16 16 -22 80 -8 100 16 24 51 29 76 11z m5758 -104 c28 -25 23 -70 -12 -105 -34 -34 -45 -33 -73 4 -19 25 -19 28 -3 62 25 54 56 68 88 39z m-4762 -53 c15 -15 20 -33 20 -77 0 -77 -15 -93 -92 -93 -59 0 -59 0 -75 37 -18 44 -13 130 8 144 8 5 38 9 67 9 39 0 57 -5 72 -20z m709 -34 c21 -19 35 -114 19 -133 -16 -20 -187 -17 -216 3 -41 29 -23 127 28 148 30 12 150 -1 169 -18z m395 -5 c9 -10 19 -34 23 -54 4 -29 1 -40 -20 -61 -24 -24 -33 -26 -112 -26 -72 0 -88 3 -105 20 -30 30 -27 85 6 115 24 22 36 25 109 25 67 0 85 -3 99 -19z m2810 -29 c12 -14 14 -28 10 -53 -8 -42 -28 -59 -68 -59 -47 0 -61 15 -57 58 2 20 60 72 81 72 9 0 24 -8 34 -18z m-4244 -42 c12 -8 16 -43 18 -196 2 -103 1 -202 -2 -219 -6 -31 -9 -33 -59 -38 -29 -3 -58 0 -64 5 -10 8 -13 54 -13 169 l0 159 -76 0 c-93 0 -110 -8 -117 -58 -8 -48 -67 -118 -107 -127 -16 -4 -32 -11 -35 -16 -4 -5 -39 -9 -78 -8 -54 0 -82 6 -112 22 -46 26 -105 99 -105 132 0 12 -8 32 -17 44 -16 19 -29 21 -141 22 -68 1 -128 -3 -132 -7 -5 -5 -11 -114 -14 -242 -3 -128 -8 -238 -11 -243 -4 -5 -32 -9 -65 -9 -43 0 -59 4 -64 16 -3 9 -6 141 -6 294 0 153 3 285 6 294 6 14 67 16 593 16 351 0 592 -4 601 -10z m2916 -33 c14 -14 15 -161 2 -186 -17 -32 -58 -45 -114 -36 -66 9 -74 23 -74 118 0 92 4 103 40 110 33 7 138 3 146 -6z m590 -12 c12 -19 14 -38 9 -92 -12 -111 -14 -113 -88 -113 -95 0 -102 9 -102 120 0 108 2 110 97 110 61 0 69 -2 84 -25z m-1292 -10 c22 -34 22 -142 -1 -167 -14 -15 -32 -18 -126 -18 -100 0 -113 2 -134 22 -19 18 -23 31 -23 86 0 98 7 102 150 102 114 0 118 -1 134 -25z m1680 -76 c20 -15 26 -29 26 -58 0 -44 -14 -61 -51 -61 -34 0 -59 32 -59 75 0 34 8 49 30 58 24 9 26 8 54 -14z m1317 -11 c23 -28 23 -37 4 -75 -16 -33 -48 -45 -83 -32 -46 17 -11 129 40 129 11 0 28 -10 39 -22z m-291 -8 c37 -37 17 -120 -30 -120 -31 0 -60 38 -60 78 0 21 5 43 12 50 18 18 56 14 78 -8z m-3475 -71 c16 -16 12 -128 -5 -139 -23 -15 -193 -12 -214 3 -25 18 -33 90 -12 121 14 23 24 26 93 29 88 4 123 0 138 -14z m-894 -20 c34 -37 38 -76 9 -107 -29 -31 -57 -28 -80 11 -25 41 -25 68 1 101 26 33 35 33 70 -5z m500 15 c14 -17 17 -114 4 -134 -9 -15 -197 -13 -218 3 -22 16 -27 125 -6 138 8 5 57 9 110 9 77 0 99 -3 110 -16z m4284 -210 l25 -16 0 -1203 c0 -1081 -2 -1205 -16 -1219 -14 -14 -177 -16 -1650 -16 l-1634 0 -20 33 c-20 31 -20 53 -20 1205 0 1091 1 1176 17 1203 l17 29 1629 0 c1481 0 1630 -1 1652 -16z m-4325 -159 c5 -14 11 -51 12 -81 3 -73 -11 -84 -108 -84 -104 0 -104 0 -104 82 0 104 4 108 106 108 81 0 85 -1 94 -25z m368 5 c18 -17 22 -32 22 -85 0 -55 -3 -66 -21 -76 -24 -12 -182 -9 -196 4 -4 5 -8 37 -7 73 1 90 15 104 109 104 58 0 75 -4 93 -20z m-1330 -187 c39 -21 89 -55 111 -75 70 -66 195 -120 306 -133 93 -10 86 58 85 -775 0 -629 -2 -737 -15 -749 -8 -8 -40 -18 -72 -21 -105 -13 -229 -74 -336 -165 -110 -94 -119 -95 -926 -95 l-675 0 -23 22 c-20 19 -23 31 -23 97 0 41 4 88 9 105 33 111 56 182 63 190 4 6 8 16 8 24 0 8 6 28 14 45 14 31 30 80 60 182 31 103 41 193 41 370 0 208 -25 385 -65 465 -4 9 -11 31 -15 50 -4 19 -11 41 -16 50 -19 34 -49 110 -49 122 0 8 -4 18 -9 24 -18 17 -34 98 -38 189 -4 77 -2 91 13 102 14 10 167 13 749 13 l731 0 72 -37z m970 -212 c2 -35 -2 -77 -9 -93 -11 -27 -14 -28 -81 -28 -46 0 -77 5 -93 16 -23 15 -25 23 -25 88 0 40 3 76 7 80 4 4 50 5 103 4 l95 -3 3 -64z m370 57 c7 -7 12 -39 12 -74 0 -80 -16 -94 -110 -94 -111 0 -110 0 -110 90 0 91 -5 87 116 89 50 1 84 -3 92 -11z m297 -508 c19 -15 20 -80 2 -104 -8 -11 -31 -20 -59 -23 -38 -4 -48 -2 -67 18 -30 33 -30 102 2 117 27 14 101 9 122 -8z m-564 -17 c14 -37 3 -90 -21 -103 -33 -18 -95 -12 -116 11 -21 23 -23 97 -2 110 7 5 39 9 71 9 54 0 58 -2 68 -27z m277 -31 c2 -31 -2 -60 -9 -68 -12 -15 -95 -19 -116 -6 -19 12 -34 61 -27 88 9 34 31 44 94 41 l55 -2 3 -53z m317 -156 c22 -9 36 -23 39 -38 8 -39 16 -292 17 -532 l0 -229 -26 -26 -25 -26 -400 -3 c-272 -2 -406 1 -420 8 -20 10 -20 20 -20 422 0 379 1 412 18 424 26 20 768 20 817 0z m-591 -922 c3 -9 6 -35 6 -59 0 -69 -5 -75 -66 -75 -62 0 -74 13 -74 79 0 30 6 44 22 55 30 21 104 21 112 0z m274 -3 c27 -23 30 -85 5 -113 -25 -28 -107 -25 -127 4 -23 33 -20 83 6 108 28 25 85 26 116 1z m272 4 c27 -14 30 -21 30 -63 0 -27 -5 -53 -12 -60 -7 -7 -35 -12 -64 -12 -49 0 -53 2 -63 31 -14 39 -14 60 -1 93 8 21 16 26 45 26 20 0 49 -7 65 -15z m-854 -250 c20 -31 16 -141 -7 -156 -22 -14 -243 -11 -257 3 -7 7 -12 40 -12 80 0 63 2 68 28 82 19 11 58 15 129 16 99 0 103 -1 119 -25z m555 4 c27 -19 29 -25 29 -83 0 -35 -5 -67 -12 -74 -19 -19 -212 -16 -232 4 -17 17 -22 118 -8 142 10 15 78 29 145 31 35 1 57 -5 78 -20z m-2436 -299 l0 -195 -59 -3 c-41 -2 -62 1 -67 10 -5 7 -9 88 -9 180 0 160 1 168 22 188 18 16 33 20 68 18 l45 -3 0 -195z m1069 164 c14 -13 16 -53 16 -284 0 -264 0 -270 -22 -290 -21 -19 -33 -20 -363 -20 -330 0 -342 1 -363 20 -19 18 -22 31 -22 88 1 97 37 164 115 212 33 21 53 25 115 24 82 0 102 -7 161 -61 36 -33 47 -51 76 -123 10 -24 13 -25 84 -20 l74 5 5 230 c3 127 7 231 8 233 1 1 24 2 51 2 32 0 55 -6 65 -16z m1804 -149 c10 -9 15 -160 8 -190 -6 -24 -10 -25 -77 -25 -105 0 -109 4 -109 103 0 112 12 126 105 122 37 -2 70 -7 73 -10z m304 -16 c32 -37 36 -151 7 -186 -8 -8 -35 -13 -80 -13 -83 0 -89 8 -89 107 0 116 6 122 100 116 30 -2 51 -10 62 -24z m1062 12 c20 -17 23 -180 4 -199 -7 -7 -41 -12 -85 -12 -87 0 -93 7 -93 107 0 92 7 111 39 116 49 7 119 1 135 -12z m284 13 c41 -8 55 -46 50 -128 -5 -87 -15 -96 -99 -96 -57 0 -70 3 -79 19 -13 25 -13 141 -1 175 13 33 60 44 129 30z m786 -34 c25 -9 26 -13 26 -90 0 -77 -1 -81 -26 -90 -14 -6 -72 -10 -130 -10 -121 0 -123 1 -119 103 3 84 22 97 136 97 48 0 99 -4 113 -10z m358 -13 c27 -42 -13 -117 -62 -117 -31 0 -40 14 -40 66 0 46 32 78 68 69 15 -4 30 -12 34 -18z m-4279 -12 c30 -29 36 -75 13 -94 -8 -7 -30 -11 -48 -9 -26 2 -37 10 -52 39 -19 35 -19 36 0 62 24 33 52 34 87 2z m487 5 c31 -31 28 -104 -6 -135 -25 -23 -35 -25 -129 -25 -127 0 -138 8 -133 96 4 76 18 84 151 84 84 0 100 -3 117 -20z m579 1 c6 -11 11 -45 11 -76 0 -50 -2 -56 -26 -65 -34 -13 -190 -13 -215 0 -16 9 -19 22 -19 73 0 35 5 68 11 74 6 6 56 11 119 12 99 1 110 0 119 -18z m1039 -1 c29 -27 28 -70 -1 -103 -43 -51 -87 -27 -87 47 0 35 30 76 55 76 6 0 21 -9 33 -20z m341 -14 c16 -19 17 -82 1 -101 -17 -20 -36 -19 -71 6 -23 16 -29 28 -29 58 0 21 3 41 7 44 12 13 80 7 92 -7z m1015 -2 c21 -21 21 -80 0 -88 -65 -25 -146 48 -102 92 17 17 84 15 102 -4z m484 -385 c4 -94 -2 -99 -136 -99 -59 0 -113 4 -121 9 -16 10 -27 97 -17 136 l7 26 132 -3 132 -3 3 -66z m-2934 25 c8 -20 8 -1051 0 -1080 -3 -11 -19 -29 -36 -39 -29 -17 -70 -18 -584 -20 -441 -2 -557 0 -571 10 -17 12 -18 52 -23 572 -3 307 -4 561 -2 566 2 4 275 7 607 7 540 0 603 -2 609 -16z m2115 2 c8 -9 10 -170 9 -582 l-3 -568 -34 -23 -34 -23 -516 1 c-284 0 -540 4 -570 8 -35 5 -59 15 -68 27 -21 29 -15 1151 7 1164 9 6 251 10 606 10 487 0 594 -2 603 -14z m-1501 -12 c30 -20 28 -52 -5 -86 -57 -59 -135 -22 -93 45 14 24 50 52 70 56 3 1 16 -6 28 -15z m-328 -124 c15 -15 20 -33 20 -74 0 -81 -15 -94 -124 -102 -70 -6 -90 -4 -97 7 -5 8 -9 49 -9 91 0 94 4 97 113 98 64 0 80 -3 97 -20z m2084 -1 c23 -18 26 -28 26 -80 0 -65 -21 -98 -62 -100 -65 -2 -134 4 -145 13 -14 11 -18 145 -5 164 11 17 33 22 98 23 48 1 67 -4 88 -20z m-4154 -139 c14 -14 20 -33 20 -65 0 -39 -3 -47 -25 -55 -38 -14 -73 6 -81 46 -8 43 3 73 29 84 32 13 35 12 57 -10z m480 10 c20 -12 28 -154 10 -175 -15 -18 -143 -21 -184 -5 -25 9 -26 14 -26 80 0 96 14 110 113 110 39 0 79 -5 87 -10z m2118 -284 c2 -93 -1 -143 -9 -152 -8 -10 -37 -14 -105 -14 -82 0 -95 2 -104 19 -15 29 -13 264 2 279 9 9 43 12 113 10 l100 -3 3 -139z m1926 79 c22 -34 23 -150 0 -159 -20 -8 -168 -8 -188 0 -13 5 -16 22 -16 83 0 47 5 82 12 89 7 7 44 12 94 12 76 0 83 -2 98 -25z m419 -1 c23 -31 15 -58 -23 -74 -53 -22 -110 4 -110 49 0 38 17 51 70 51 36 -1 48 -5 63 -26z m-2865 -36 c7 -7 12 -40 12 -80 0 -90 -13 -100 -136 -96 l-89 3 -3 79 c-2 44 -1 85 2 93 7 17 196 19 214 1z m-1610 -136 c28 -22 42 -115 23 -151 -11 -20 -18 -22 -109 -19 l-97 3 -6 70 c-4 39 -3 80 2 93 8 20 15 22 86 22 59 0 84 -5 101 -18z m4052 -157 c19 -21 22 -32 18 -79 -7 -80 -15 -86 -119 -86 -51 0 -91 4 -94 11 -13 21 -18 126 -6 147 13 24 32 29 117 31 52 1 64 -2 84 -24z m-356 -61 c12 -5 16 -21 16 -75 0 -97 -14 -109 -120 -109 -94 0 -100 6 -100 99 0 92 -1 91 100 91 49 0 95 -3 104 -6z m-2019 -166 c37 -17 54 -78 31 -113 -32 -49 -93 -18 -103 53 -4 33 -2 42 18 56 28 19 22 19 54 4z m310 -4 c18 -12 25 -25 25 -50 0 -67 -83 -114 -108 -60 -14 30 0 93 25 111 23 18 29 18 58 -1z m-1061 -216 c3 -13 6 -58 6 -100 0 -94 -18 -118 -85 -118 -70 0 -85 23 -85 134 0 51 3 96 7 99 3 4 39 7 79 7 66 0 72 -2 78 -22z m292 11 c3 -6 6 -51 5 -100 -2 -108 -20 -139 -82 -139 -51 0 -67 8 -84 41 -15 29 -22 189 -8 202 11 12 161 8 169 -4z m1535 -49 c14 -21 7 -154 -10 -174 -10 -12 -30 -16 -77 -16 -82 0 -94 15 -94 117 0 58 3 74 18 83 25 16 151 8 163 -10z m280 10 c16 -9 19 -22 19 -90 0 -104 -7 -112 -109 -108 l-76 3 -3 88 c-2 57 1 94 9 103 14 17 130 19 160 4z"/> <path d="M9270 6520 l0 -250 260 0 260 0 0 238 c0 172 -3 241 -12 250 -9 9 -80 12 -260 12 l-248 0 0 -250z"/> <path d="M10616 6463 c-43 -12 -146 -90 -146 -111 0 -4 -5 -13 -12 -20 -16 -16 -48 -120 -48 -156 0 -43 30 -135 60 -181 14 -22 52 -58 85 -80 60 -40 60 -40 160 -40 98 0 101 1 156 37 68 43 106 91 130 161 39 111 16 227 -61 306 -70 71 -100 84 -210 87 -52 2 -104 0 -114 -3z"/> <path d="M9798 4963 c-17 -4 -18 -64 -18 -1073 0 -890 2 -1069 14 -1079 21 -17 2997 -16 3008 1 11 19 10 2101 -2 2132 l-9 25 -1488 -1 c-818 0 -1496 -3 -1505 -5z m1090 -103 c909 0 922 0 942 -20 20 -20 20 -33 20 -964 0 -533 -4 -947 -9 -950 -5 -3 -121 -8 -257 -10 -137 -3 -371 -8 -519 -11 -257 -6 -271 -6 -288 12 -15 17 -17 51 -19 284 l-3 264 -340 0 -340 0 -8 -265 c-9 -313 -6 -304 -104 -298 -34 2 -66 7 -70 12 -12 12 -20 1917 -8 1939 8 14 18 17 45 13 19 -3 450 -6 958 -6z m1782 -60 c17 -17 20 -33 20 -113 0 -139 2 -137 -174 -137 -97 0 -146 4 -154 12 -19 19 -16 222 4 242 12 13 41 16 150 16 121 0 136 -2 154 -20z m-2054 -1472 l26 -12 -4 -183 c-3 -153 -6 -185 -20 -199 -19 -20 -208 -34 -322 -25 -100 8 -105 18 -106 226 0 88 -1 166 0 173 0 7 10 17 23 22 35 14 371 12 403 -2z"/> <path d="M7130 4450 c-435 -5 -431 -5 -480 -50 -51 -46 -67 -169 -30 -238 29 -55 51 -78 95 -98 44 -21 52 -21 571 -16 l280 2 17 35 c14 29 17 66 17 183 0 135 -2 150 -20 170 -12 12 -24 21 -28 20 -4 -2 -194 -5 -422 -8z m21 -98 c346 -8 339 -6 339 -98 0 -31 -5 -56 -12 -61 -15 -9 -213 -26 -500 -44 -229 -13 -251 -10 -281 40 -22 38 -21 73 3 113 27 44 76 70 120 62 19 -3 168 -8 331 -12z"/> <path d="M7747 3943 c-4 -3 -7 -34 -7 -67 0 -34 -5 -68 -10 -76 -6 -10 -32 -17 -77 -20 -55 -4 -68 -8 -71 -23 -7 -34 17 -47 83 -47 70 0 75 -5 75 -71 0 -26 5 -42 15 -45 24 -10 42 12 37 45 -2 16 1 38 7 50 11 19 20 21 97 21 93 0 124 10 124 40 0 24 -17 28 -129 34 -54 3 -87 9 -92 18 -5 7 -9 38 -9 69 0 61 -20 95 -43 72z"/> <path d="M6706 3470 c-74 -47 -102 -109 -92 -201 8 -80 26 -119 72 -154 l39 -30 417 -3 c287 -2 424 0 438 8 19 10 20 20 20 174 0 219 7 210 -190 219 -80 4 -264 7 -410 6 -241 0 -268 -2 -294 -19z m484 -92 c297 -22 285 -19 310 -61 26 -42 25 -75 -2 -104 -21 -23 -24 -23 -247 -23 -124 0 -276 -5 -338 -12 -121 -12 -140 -8 -190 36 -25 21 -39 73 -29 104 8 24 34 55 61 70 21 13 171 9 435 -10z"/> <path d="M1040 6865 c-136 -33 -161 -198 -42 -277 24 -16 59 -18 370 -18 l342 0 39 24 c51 33 75 85 68 148 -8 68 -46 106 -123 124 -81 19 -575 18 -654 -1z"/> <path d="M2160 6864 c-66 -19 -76 -26 -101 -78 -23 -49 -24 -83 -2 -127 19 -39 27 -47 65 -72 25 -16 76 -17 648 -17 681 0 643 -3 697 59 18 21 22 38 22 91 0 56 -3 69 -27 96 -51 59 -44 58 -672 61 -487 1 -583 -1 -630 -13z"/> <path d="M3728 6864 c-32 -7 -66 -22 -76 -32 -28 -28 -52 -81 -52 -114 0 -35 39 -99 78 -127 l30 -21 1576 0 c1480 0 1578 1 1604 17 76 49 103 128 67 200 -23 46 -48 63 -112 78 -86 21 -3030 20 -3115 -1z"/> <path d="M1181 6200 c-18 -4 -49 -24 -68 -43 -32 -32 -35 -39 -35 -95 0 -43 5 -66 16 -77 9 -9 16 -20 16 -25 0 -4 16 -17 36 -29 32 -19 50 -21 226 -21 189 0 191 0 225 26 44 33 63 73 63 131 0 63 -45 120 -105 133 -48 11 -326 11 -374 0z"/> <path d="M1981 6200 c-19 -5 -48 -23 -65 -41 -28 -30 -31 -39 -31 -99 0 -49 5 -71 20 -91 44 -59 45 -59 430 -59 l353 0 39 40 c87 87 53 229 -59 251 -55 10 -642 10 -687 -1z"/> <path d="M3105 6201 c-41 -10 -74 -32 -81 -53 -3 -10 -10 -18 -15 -18 -5 0 -9 -28 -9 -62 0 -72 18 -108 69 -139 30 -18 55 -19 401 -19 345 0 372 1 401 19 48 29 69 72 69 141 0 33 -4 60 -9 60 -5 0 -12 8 -15 18 -3 10 -21 27 -38 37 -31 19 -54 20 -388 22 -195 1 -368 -2 -385 -6z"/> <path d="M4151 6200 c-18 -4 -49 -24 -68 -43 -32 -32 -35 -39 -35 -95 0 -68 18 -101 73 -134 28 -17 83 -18 1080 -18 888 0 1054 2 1077 14 114 60 99 248 -23 276 -49 12 -2056 11 -2104 0z"/> <path d="M825 5335 c-43 -43 -45 -47 -45 -103 0 -52 4 -63 33 -97 26 -30 42 -39 82 -46 78 -12 1165 -11 1225 2 43 9 56 18 81 51 50 70 35 160 -35 213 l-33 25 -632 0 -632 0 -44 -45z"/> <path d="M2472 5340 c-63 -63 -67 -148 -11 -211 34 -38 78 -48 219 -48 183 0 227 20 259 116 13 38 12 46 -7 87 -12 24 -37 56 -55 70 -33 26 -37 26 -199 26 l-166 0 -40 -40z"/> <path d="M3199 5357 c-89 -60 -86 -183 5 -251 27 -21 31 -21 1245 -21 1367 0 1244 -7 1296 75 32 51 32 88 -1 143 -51 84 66 77 -1298 77 l-1213 0 -34 -23z"/> <path d="M1370 4471 c0 -5 -8 -12 -18 -15 -10 -4 -29 -20 -42 -38 -30 -41 -32 -133 -4 -171 51 -68 105 -77 470 -77 347 0 410 8 461 62 25 26 28 36 28 96 0 52 -5 73 -20 93 -45 60 -40 59 -476 59 -240 0 -399 -4 -399 -9z"/> <path d="M2490 4463 c-49 -30 -65 -63 -65 -133 0 -59 3 -69 30 -98 46 -49 113 -62 315 -62 240 0 298 17 341 102 36 70 17 128 -65 196 -24 19 -522 15 -556 -5z"/> <path d="M3316 4437 c-45 -42 -46 -45 -46 -103 0 -54 3 -65 33 -98 60 -68 20 -66 1212 -66 1127 0 1137 0 1197 46 28 21 58 81 58 117 0 36 -46 109 -82 130 -27 16 -116 17 -1178 17 l-1149 0 -45 -43z"/> <path d="M2250 3563 c-49 -30 -65 -63 -65 -133 0 -60 3 -69 30 -97 45 -46 113 -63 249 -63 123 0 216 18 248 47 68 61 60 180 -14 237 l-35 26 -194 -1 c-155 -1 -199 -4 -219 -16z"/> <path d="M2917 3544 c-59 -59 -64 -160 -11 -215 55 -58 71 -59 746 -59 669 0 682 1 740 57 62 59 57 168 -11 223 l-36 30 -696 0 -696 0 -36 -36z"/> <path d="M4599 3550 c-67 -55 -75 -157 -17 -222 47 -53 93 -58 578 -58 498 0 518 2 578 68 28 31 32 42 32 94 0 56 -2 60 -45 103 l-44 45 -523 0 -523 0 -36 -30z"/> <path d="M1430 2662 c-41 -27 -57 -49 -70 -97 -11 -38 -10 -50 5 -87 22 -55 31 -66 74 -85 43 -19 276 -26 329 -9 19 5 49 28 68 50 29 34 34 47 34 93 0 61 -26 109 -73 136 -42 25 -330 24 -367 -1z"/> <path d="M2163 2655 c-98 -77 -77 -229 36 -266 25 -9 138 -13 356 -14 288 -1 324 1 357 17 61 30 78 60 78 141 0 69 -1 71 -40 109 l-41 38 -357 0 -357 0 -32 -25z"/> <path d="M3302 2665 c-36 -20 -57 -47 -70 -92 -14 -47 -9 -83 20 -131 42 -69 -39 -64 1313 -66 671 -1 1236 3 1256 7 21 5 52 24 70 44 32 32 34 38 34 106 0 76 -6 89 -65 130 -23 16 -117 17 -1280 16 -995 -1 -1260 -4 -1278 -14z"/> <path d="M275 1763 c-16 -8 -37 -23 -46 -32 -19 -20 -49 -110 -39 -116 4 -3 11 -20 14 -38 7 -38 37 -70 79 -86 44 -17 367 -14 408 3 60 25 74 49 74 130 0 81 -17 113 -73 140 -48 23 -373 23 -417 -1z"/> <path d="M998 1761 c-54 -34 -72 -68 -72 -137 0 -54 4 -68 25 -90 52 -56 31 -54 657 -54 593 0 624 2 661 39 64 65 50 186 -28 238 l-34 23 -591 -1 c-543 0 -593 -2 -618 -18z"/> <path d="M2532 1762 c-49 -26 -72 -72 -72 -140 0 -52 3 -61 34 -94 21 -22 48 -39 68 -43 18 -3 335 -5 705 -3 662 3 672 3 699 24 76 56 85 163 19 229 -5 6 -22 18 -37 28 -25 16 -78 17 -705 17 -626 -1 -681 -2 -711 -18z"/> <path d="M4213 1762 c-54 -29 -78 -69 -78 -132 0 -42 6 -63 24 -89 46 -64 -12 -61 1131 -61 1130 0 1066 -3 1120 55 22 23 25 35 24 95 0 75 -7 89 -66 126 l-38 24 -1042 0 c-964 -1 -1045 -2 -1075 -18z"/> <path d="M1425 943 c-62 -16 -135 -153 -95 -178 6 -3 10 -14 10 -24 0 -9 16 -33 35 -51 33 -32 41 -35 109 -38 89 -5 135 13 168 66 42 68 20 172 -44 211 -23 15 -147 24 -183 14z"/> <path d="M1875 943 c-51 -14 -105 -87 -105 -143 0 -38 30 -94 65 -122 l30 -23 360 0 360 0 30 23 c84 66 84 178 0 244 l-29 23 -346 2 c-190 0 -354 -1 -365 -4z"/> <path d="M2873 943 c-34 -7 -81 -59 -93 -104 -23 -85 31 -172 115 -185 25 -3 106 -5 180 -2 l135 4 35 38 c33 36 35 43 35 107 0 64 -2 70 -34 102 -18 19 -48 37 -66 41 -35 7 -271 6 -307 -1z"/> <path d="M3572 943 c-13 -2 -38 -19 -56 -38 -59 -58 -59 -152 0 -215 l33 -35 1736 0 1735 0 37 38 c37 36 38 40 38 107 0 67 -1 71 -38 107 l-37 38 -1713 1 c-941 1 -1722 -1 -1735 -3z"/> </g> </svg> 