 <svg  version="1.0" xmlns="http://www.w3.org/2000/svg"  width="1350.000000pt" height="774.000000pt" viewBox="0 0 1350.000000 774.000000"  preserveAspectRatio="xMidYMid meet">  <g transform="translate(0.000000,774.000000) scale(0.100000,-0.100000)" fill="#00a3d7" stroke="none"> <path d="M9255 7569 c-129 -12 -297 -37 -335 -48 -19 -6 -52 -11 -72 -11 -20 0 -39 -4 -42 -9 -3 -4 -26 -11 -51 -14 -25 -4 -69 -14 -98 -22 -28 -9 -74 -23 -102 -31 -135 -39 -375 -122 -430 -149 -16 -7 -61 -28 -100 -45 -118 -54 -301 -149 -344 -179 -16 -12 -34 -21 -39 -21 -6 0 -17 -6 -24 -13 -7 -7 -33 -26 -58 -41 -63 -38 -82 -50 -94 -59 -74 -53 -152 -112 -156 -117 -3 -3 -36 -31 -75 -62 -84 -66 -193 -165 -295 -268 -68 -67 -96 -98 -190 -206 -40 -46 -203 -264 -242 -324 -116 -178 -149 -233 -182 -300 -20 -41 -41 -82 -46 -90 -5 -8 -23 -46 -40 -85 -17 -38 -37 -83 -45 -100 -17 -37 -37 -85 -60 -145 -9 -25 -23 -60 -31 -78 -8 -18 -14 -39 -14 -47 0 -7 -5 -26 -12 -42 -31 -76 -87 -286 -113 -428 -43 -230 -63 -402 -64 -547 -1 -59 1 -68 17 -68 10 0 27 -7 38 -15 10 -8 25 -15 32 -15 30 0 142 -96 174 -149 12 -20 25 -38 28 -41 4 -3 17 -33 29 -68 39 -116 22 -232 -56 -363 -33 -56 -124 -149 -144 -149 -6 0 -17 -7 -25 -15 -9 -8 -24 -15 -34 -15 -25 0 -30 -21 -20 -77 6 -26 15 -77 22 -113 7 -36 16 -69 19 -75 4 -5 9 -28 13 -50 4 -22 13 -58 21 -80 7 -22 30 -92 50 -155 34 -108 68 -200 102 -280 8 -19 18 -44 23 -55 21 -51 146 -301 155 -311 6 -6 19 -31 30 -55 11 -24 24 -49 30 -56 5 -6 37 -55 70 -108 172 -277 504 -652 750 -850 28 -22 61 -50 75 -62 14 -13 30 -23 36 -23 6 0 25 22 42 49 26 40 75 90 137 139 24 19 84 45 125 55 59 13 226 14 270 0 97 -28 220 -131 269 -225 78 -151 80 -305 5 -445 -24 -46 -24 -63 2 -63 8 0 22 -4 32 -9 39 -20 89 -39 119 -45 18 -4 35 -12 38 -17 4 -5 15 -9 25 -9 10 0 31 -5 47 -12 104 -43 413 -117 578 -138 44 -6 94 -15 110 -20 17 -5 137 -14 268 -20 246 -12 610 -1 707 21 25 6 74 14 110 19 115 16 193 32 360 76 87 23 108 29 231 69 l116 38 -15 41 c-17 49 -11 148 13 215 39 109 114 186 240 246 117 56 307 41 401 -30 25 -19 47 -26 89 -28 31 -1 59 3 63 9 4 5 25 21 47 34 34 20 177 121 210 147 6 5 33 26 60 48 175 137 441 400 552 543 37 48 70 89 74 92 3 3 28 37 54 75 27 39 60 86 74 105 14 19 31 44 38 55 7 11 30 49 51 85 79 130 179 324 227 440 15 36 31 69 36 75 5 5 9 16 9 25 0 8 7 28 15 44 8 15 15 36 15 45 0 10 7 26 15 37 8 10 15 27 15 36 0 9 5 29 12 45 30 73 79 259 114 433 46 231 63 411 62 685 0 288 -14 449 -62 695 -30 154 -93 402 -108 426 -4 6 -11 28 -17 50 -10 42 -27 91 -48 141 -7 17 -13 36 -13 42 0 6 -4 19 -10 29 -5 9 -19 40 -30 67 -41 97 -52 121 -113 245 -34 69 -78 152 -97 185 -20 33 -41 71 -48 85 -17 34 -30 54 -80 128 -23 35 -42 66 -42 68 0 3 -6 11 -12 18 -7 8 -20 24 -28 36 -138 206 -379 470 -634 695 -44 39 -93 82 -110 98 -17 15 -35 27 -41 27 -5 0 -28 -24 -51 -53 -106 -137 -277 -205 -450 -177 -136 22 -284 135 -345 265 -30 64 -33 80 -37 186 -4 119 -1 134 44 222 18 37 18 47 -3 47 -10 0 -31 7 -47 15 -15 8 -35 15 -43 15 -8 0 -29 6 -46 13 -29 13 -63 23 -197 63 -221 64 -424 103 -695 134 -96 11 -667 10 -780 -1z m257 -151 c45 -24 78 -52 78 -67 0 -5 -14 -37 -32 -70 -38 -73 -51 -76 -132 -28 -64 37 -70 57 -34 116 47 79 55 83 120 49z m777 -118 c74 -38 89 -55 73 -81 -7 -11 -27 -46 -43 -77 -41 -76 -47 -82 -78 -82 -28 0 -141 68 -141 84 0 20 95 176 110 180 8 2 16 4 17 5 1 0 29 -13 62 -29z m-1071 -7 c26 -16 56 -33 67 -40 11 -7 32 -17 48 -24 15 -6 27 -15 27 -20 0 -5 5 -9 11 -9 10 0 123 -63 179 -100 8 -6 24 -14 35 -19 19 -8 186 -106 225 -131 8 -6 25 -14 37 -19 46 -20 40 -56 -25 -163 -22 -35 -56 -96 -77 -134 -21 -38 -40 -71 -44 -74 -7 -5 -91 -143 -104 -170 -4 -8 -16 -28 -27 -45 -11 -16 -24 -40 -30 -53 -5 -12 -25 -47 -45 -77 -41 -65 -57 -68 -124 -26 -26 15 -57 32 -69 35 -12 4 -22 12 -22 17 0 5 -5 9 -11 9 -6 0 -48 22 -93 49 -138 83 -150 90 -171 100 -11 5 -73 40 -136 79 -64 38 -126 73 -138 77 -30 9 -27 48 8 104 15 26 32 57 35 69 4 12 12 22 17 22 5 0 9 5 9 11 0 6 27 56 60 111 33 54 60 101 60 105 0 9 102 176 122 198 9 11 29 43 43 70 44 83 62 90 133 48z m579 -39 c51 -39 57 -58 35 -107 -11 -23 -22 -50 -26 -60 -13 -40 -49 -32 -148 32 l-38 25 30 53 c58 103 77 110 147 57z m-922 -10 c27 -14 58 -35 67 -48 16 -22 15 -25 -10 -76 -39 -77 -49 -80 -124 -43 -35 18 -72 41 -82 52 -17 19 -17 21 9 65 26 45 59 76 80 76 5 0 32 -12 60 -26z m-407 -104 c28 -27 28 -42 -4 -79 -27 -32 -52 -38 -85 -21 -26 15 -24 47 7 87 29 38 51 42 82 13z m2119 -11 c98 -53 105 -71 59 -148 -11 -20 -28 -49 -36 -65 -25 -49 -40 -52 -104 -20 -31 16 -66 38 -77 50 -19 20 -19 21 7 70 15 27 33 60 40 74 12 23 46 68 51 70 2 0 28 -14 60 -31z m-1875 -139 c26 -16 51 -30 55 -30 3 0 15 -7 25 -17 19 -17 25 -53 8 -53 -5 0 -10 -6 -10 -13 0 -7 -11 -29 -25 -50 -33 -48 -61 -48 -125 0 -53 40 -66 67 -50 109 14 37 49 84 62 84 6 0 33 -13 60 -30z m-919 -137 c18 -10 158 -93 312 -184 154 -92 297 -175 318 -185 20 -10 37 -21 37 -26 0 -4 5 -8 11 -8 9 0 116 -60 179 -100 8 -5 29 -16 45 -24 40 -20 65 -41 65 -54 0 -15 -42 -96 -52 -100 -4 -2 -8 -8 -8 -14 0 -9 -61 -117 -100 -178 -5 -8 -16 -29 -24 -46 -14 -31 -51 -51 -62 -33 -3 5 -21 16 -40 24 -37 15 -45 43 -19 65 8 7 15 17 15 22 0 6 27 55 60 110 33 54 60 103 60 108 0 8 -94 67 -132 82 -13 5 -26 -1 -43 -21 -43 -48 -109 -74 -169 -68 -89 10 -166 59 -205 132 -26 48 -29 139 -6 172 14 20 14 24 -4 40 -33 31 -50 43 -57 43 -3 0 -40 20 -81 45 -40 25 -79 45 -86 45 -11 0 -67 -81 -67 -96 0 -19 -194 -324 -205 -324 -17 0 -87 47 -98 65 -6 11 75 162 143 265 6 8 13 22 17 30 24 57 137 230 150 230 8 0 29 -8 46 -17z m503 9 c28 -19 32 -45 12 -79 -33 -55 -75 -65 -98 -22 -16 30 -11 59 15 84 24 25 50 31 71 17z m1918 -68 c9 -9 16 -32 16 -54 0 -73 -54 -94 -90 -35 -23 37 -21 82 3 97 20 13 55 9 71 -8z m-293 -153 c73 -38 83 -66 47 -129 -15 -26 -35 -49 -44 -51 -10 -2 -51 14 -91 35 -57 29 -73 43 -73 60 0 12 7 27 15 34 8 7 15 18 15 25 0 8 12 27 26 45 19 22 30 28 38 20 7 -5 37 -23 67 -39z m557 -7 c28 -19 28 -51 0 -81 -25 -27 -49 -29 -83 -7 -30 20 -31 37 -4 75 23 33 53 37 87 13z m413 -34 c46 -27 93 -54 105 -59 19 -9 139 -78 174 -101 8 -6 27 -15 43 -21 15 -6 27 -15 27 -20 0 -5 5 -9 11 -9 22 0 131 -73 140 -94 12 -25 4 -46 -41 -121 -16 -27 -34 -59 -39 -70 -8 -19 -107 -187 -131 -225 -6 -8 -14 -24 -19 -36 -13 -28 -72 -125 -91 -146 -29 -35 -76 -23 -191 47 -9 6 -40 23 -68 38 -29 15 -80 45 -114 66 -34 20 -69 40 -77 44 -8 4 -28 16 -45 27 -16 11 -42 25 -57 31 -16 6 -28 15 -28 20 0 5 -7 9 -15 9 -43 0 -73 82 -40 110 8 7 15 17 15 22 0 6 22 47 49 92 85 141 91 150 102 176 5 13 13 27 17 30 4 3 13 16 19 30 7 14 26 48 42 75 17 28 35 60 40 72 17 37 44 63 67 63 11 0 59 -22 105 -50z m-1142 -209 c26 -15 56 -31 68 -35 11 -4 23 -16 27 -28 7 -31 -48 -126 -78 -134 -40 -10 -156 63 -156 98 0 33 62 128 83 128 5 0 31 -13 56 -29z m-2594 -31 c17 -11 51 -31 77 -45 26 -14 87 -49 136 -79 49 -29 99 -57 110 -60 12 -4 22 -12 22 -17 0 -5 5 -9 11 -9 6 0 55 -27 109 -59 53 -32 107 -62 119 -66 11 -3 21 -11 21 -16 0 -5 5 -9 11 -9 6 0 44 -19 83 -43 39 -24 78 -46 86 -50 8 -4 29 -16 45 -27 17 -11 44 -26 60 -34 17 -8 53 -28 80 -45 28 -16 74 -42 103 -57 28 -15 52 -31 52 -36 0 -4 5 -8 11 -8 39 0 169 -157 169 -204 0 -9 4 -24 10 -34 5 -9 17 -35 27 -56 24 -56 100 -147 166 -202 33 -27 57 -55 57 -65 0 -11 -11 -37 -25 -59 -14 -22 -25 -42 -25 -45 0 -4 -80 -140 -179 -305 -11 -19 -25 -44 -30 -55 -8 -19 -107 -187 -131 -225 -6 -8 -14 -24 -19 -35 -8 -18 -136 -236 -161 -275 -6 -8 -14 -24 -19 -36 -8 -19 -76 -134 -101 -174 -6 -8 -14 -25 -20 -38 -17 -39 -48 -42 -120 -13 -67 26 -124 29 -422 20 -75 -3 -134 12 -188 46 -22 14 -42 25 -46 25 -4 0 -40 20 -81 45 -40 25 -78 45 -83 45 -5 0 -15 6 -22 13 -21 19 -50 36 -80 48 -16 6 -28 15 -28 20 0 5 -5 9 -11 9 -10 0 -123 63 -179 100 -8 6 -24 14 -35 19 -12 5 -63 34 -113 65 -51 31 -95 56 -98 56 -4 0 -62 34 -131 75 -68 41 -126 75 -129 75 -18 0 -144 85 -149 100 -6 19 5 49 35 95 11 17 24 39 29 50 13 29 89 105 174 172 101 80 337 318 337 339 0 3 11 20 25 38 28 37 60 94 117 211 58 118 66 137 74 175 3 19 10 40 14 45 9 12 25 91 45 220 30 191 36 217 66 282 17 37 39 78 48 90 20 27 55 28 96 3z m3140 -26 c28 -18 33 -59 13 -86 -23 -30 -72 -27 -93 6 -14 22 -15 28 -1 60 17 40 41 46 81 20z m-1255 -69 c53 -34 65 -58 51 -104 -13 -43 -40 -76 -67 -85 -19 -6 -84 23 -111 49 -15 16 -18 75 -3 75 6 0 10 5 10 12 0 22 45 78 63 78 9 0 35 -11 57 -25z m2917 -70 c40 -25 76 -45 78 -45 2 0 24 -13 48 -30 25 -16 48 -30 52 -30 4 0 40 -19 79 -43 39 -24 78 -46 86 -50 8 -4 22 -11 30 -16 8 -5 56 -33 105 -62 50 -29 98 -59 108 -67 17 -15 24 -72 9 -72 -4 0 -12 -9 -17 -20 -58 -117 -68 -130 -97 -130 -15 0 -28 4 -28 8 0 4 -13 12 -28 18 -41 16 -44 44 -11 97 26 43 27 46 10 61 -10 9 -21 16 -26 16 -5 0 -16 6 -24 14 -9 7 -47 31 -86 51 -97 53 -105 57 -152 88 -24 15 -45 27 -49 27 -3 0 -36 18 -73 40 -37 22 -71 40 -77 40 -5 0 -22 -23 -37 -50 -16 -28 -35 -50 -43 -50 -18 0 -63 28 -86 54 -17 18 -17 20 3 52 11 18 27 48 36 66 44 92 82 98 190 33z m-349 -181 c40 -24 75 -44 78 -44 4 0 55 -29 114 -65 59 -36 113 -65 119 -65 6 0 11 -3 11 -8 0 -8 26 -23 73 -42 15 -7 27 -16 27 -21 0 -5 5 -9 11 -9 6 0 45 -20 86 -45 40 -25 76 -45 79 -45 4 0 61 -33 128 -72 67 -40 139 -82 159 -92 50 -26 87 -64 87 -89 0 -17 -34 -80 -137 -252 -7 -11 -17 -32 -24 -47 -6 -16 -15 -28 -20 -28 -5 0 -9 -5 -9 -11 0 -6 -27 -56 -60 -111 -33 -54 -60 -101 -60 -105 0 -3 -13 -25 -30 -50 -16 -24 -30 -46 -30 -50 0 -3 -36 -65 -81 -139 -53 -88 -86 -134 -97 -134 -9 0 -44 16 -77 35 -33 19 -69 39 -80 44 -12 5 -63 34 -113 65 -51 31 -95 56 -98 56 -4 0 -51 27 -106 60 -54 33 -101 60 -105 60 -3 0 -49 26 -102 58 -53 32 -103 61 -111 65 -8 4 -28 16 -45 27 -16 11 -39 24 -50 30 -111 57 -205 118 -205 134 0 8 15 41 34 73 41 72 157 270 173 298 7 11 17 32 24 48 6 15 15 27 20 27 5 0 9 5 9 11 0 9 61 119 100 179 5 8 21 36 35 62 43 81 137 233 149 240 16 11 43 1 124 -48z m-1475 15 c44 -24 47 -48 12 -84 -30 -29 -75 -33 -99 -9 -24 24 -19 50 15 78 34 29 41 31 72 15z m-536 -130 c32 -17 66 -38 76 -47 24 -22 21 -71 -8 -114 -28 -42 -38 -41 -112 5 -21 13 -47 27 -58 30 -34 11 -48 43 -35 83 11 31 51 74 71 74 5 0 35 -14 66 -31z m-487 -78 c18 -35 11 -71 -19 -102 -16 -16 -34 -29 -40 -29 -20 0 -41 32 -41 64 0 66 74 115 100 67z m831 -123 c79 -41 94 -63 80 -116 -12 -43 -44 -64 -82 -55 -13 3 -52 22 -86 42 -80 47 -90 82 -40 139 28 30 56 28 128 -10z m-494 -64 c75 -40 112 -66 113 -76 0 -4 -14 -30 -31 -58 -25 -41 -36 -50 -59 -50 -16 0 -30 3 -32 8 -1 4 -21 16 -43 27 -53 27 -95 63 -95 83 0 25 50 102 66 102 8 0 45 -16 81 -36z m1237 -59 c20 -14 40 -25 45 -25 4 0 18 -8 29 -17 12 -10 33 -26 47 -36 32 -23 33 -72 2 -108 -37 -41 -54 -42 -108 -9 -27 16 -51 30 -54 30 -11 0 -97 64 -102 77 -11 29 50 113 83 113 12 0 38 -11 58 -25z m-900 -130 c39 -19 79 -41 89 -49 17 -13 24 -61 10 -68 -5 -1 -15 -16 -23 -33 -22 -43 -64 -45 -123 -6 -25 17 -50 31 -55 31 -20 0 -53 52 -46 74 12 38 45 86 61 86 9 0 48 -16 87 -35z m-554 -93 c3 -4 26 -18 53 -32 51 -27 61 -55 33 -95 -7 -11 -16 -32 -20 -47 -9 -38 -47 -47 -95 -21 -124 66 -131 79 -84 148 19 27 40 53 46 58 13 8 58 0 67 -11z m3524 -17 c23 -17 25 -64 6 -100 -25 -46 -73 -41 -90 10 -25 75 29 132 84 90z m-2239 -105 c36 -22 68 -40 72 -40 14 0 53 -44 53 -61 0 -10 -16 -45 -36 -78 -38 -65 -60 -75 -99 -47 -11 7 -51 30 -90 51 -38 20 -73 42 -77 49 -14 20 -8 58 14 95 51 86 68 89 163 31z m-926 -86 c75 -45 83 -66 46 -127 -46 -80 -54 -81 -162 -18 -53 30 -63 40 -63 64 0 15 5 27 10 27 6 0 10 5 10 11 0 6 12 26 26 45 34 44 57 43 133 -2z m-551 -82 c15 -10 51 -29 80 -42 28 -14 52 -30 52 -38 0 -7 -11 -30 -25 -52 -14 -22 -25 -44 -25 -49 0 -34 -66 -54 -92 -28 -7 7 -30 23 -51 36 -20 12 -42 31 -47 42 -11 20 -3 69 11 69 5 0 9 6 9 14 0 17 38 66 52 66 5 0 22 -8 36 -18z m3870 -118 l22 -15 -19 -38 c-22 -42 -20 -47 32 -81 40 -27 51 -47 41 -74 -8 -20 -53 -21 -80 -1 -30 23 -61 19 -68 -10 -7 -29 -49 -44 -72 -24 -31 25 -36 49 -19 76 17 25 17 26 -29 68 -50 45 -52 63 -11 85 20 11 27 10 51 -9 35 -27 52 -27 66 4 10 22 23 30 53 34 6 0 21 -6 33 -15z m-3498 -95 c79 -47 90 -67 61 -108 -12 -16 -21 -33 -21 -37 0 -15 -34 -44 -52 -44 -25 0 -146 70 -153 89 -11 28 58 141 86 141 6 0 41 -18 79 -41z m957 20 c21 -11 52 -29 68 -40 17 -10 39 -23 50 -28 12 -5 63 -34 113 -65 51 -31 95 -56 98 -56 4 0 55 -29 114 -65 59 -36 112 -65 118 -65 6 0 12 -3 14 -7 2 -5 24 -19 51 -33 26 -13 47 -28 47 -32 0 -5 5 -8 11 -8 6 0 56 -27 111 -60 54 -33 101 -60 105 -60 3 0 50 -27 105 -60 54 -33 101 -60 105 -60 3 0 49 -27 103 -59 53 -32 107 -62 119 -66 11 -3 21 -11 21 -16 0 -5 5 -9 11 -9 6 0 48 -22 93 -49 139 -84 150 -90 171 -100 19 -8 187 -107 225 -131 8 -6 24 -14 35 -19 12 -5 62 -34 111 -64 50 -30 101 -58 112 -61 12 -4 22 -12 22 -17 0 -5 5 -9 11 -9 6 0 67 -34 136 -75 68 -41 127 -75 130 -75 3 0 42 -22 87 -49 117 -70 146 -87 195 -112 96 -48 101 -78 36 -186 -25 -40 -45 -76 -45 -80 0 -3 -19 -38 -43 -77 -24 -39 -46 -78 -50 -86 -4 -8 -11 -22 -16 -30 -6 -8 -49 -82 -97 -165 -48 -82 -95 -162 -105 -177 -11 -15 -19 -30 -19 -34 0 -3 -27 -50 -59 -104 -32 -53 -62 -107 -66 -119 -3 -11 -11 -21 -16 -21 -5 0 -9 -5 -9 -11 0 -6 -27 -56 -60 -111 -33 -54 -60 -102 -60 -107 0 -4 -12 -23 -26 -42 -14 -19 -29 -43 -34 -54 -4 -12 -33 -63 -64 -113 -31 -51 -56 -95 -56 -99 0 -5 -74 -133 -100 -173 -6 -8 -15 -24 -20 -35 -6 -11 -19 -33 -30 -50 -11 -16 -26 -42 -32 -57 -7 -16 -16 -28 -20 -28 -4 0 -8 -5 -8 -11 0 -20 -101 -179 -120 -189 -25 -13 -46 -13 -62 3 -7 7 -24 18 -38 24 -14 7 -47 26 -75 43 -27 16 -62 35 -77 41 -16 6 -28 15 -28 20 0 5 -5 9 -11 9 -6 0 -56 27 -111 60 -54 33 -101 60 -105 60 -3 0 -49 26 -102 58 -53 32 -103 61 -111 65 -8 4 -28 16 -45 27 -16 11 -43 26 -60 34 -39 20 -100 55 -152 89 -24 15 -45 27 -49 27 -3 0 -55 29 -114 65 -59 36 -113 65 -119 65 -6 0 -11 5 -11 10 0 6 -5 10 -11 10 -6 0 -48 22 -93 49 -44 27 -97 58 -116 70 -19 12 -47 26 -62 32 -16 6 -28 15 -28 20 0 5 -5 9 -11 9 -6 0 -56 27 -111 60 -54 33 -101 60 -105 60 -3 0 -49 27 -103 59 -53 32 -107 62 -119 66 -11 3 -21 11 -21 16 0 5 -5 9 -11 9 -6 0 -67 34 -136 75 -68 41 -127 75 -130 75 -3 0 -49 27 -103 59 -53 32 -107 62 -119 66 -11 3 -21 11 -21 16 0 5 -5 9 -11 9 -6 0 -44 19 -83 43 -39 24 -78 46 -86 50 -43 20 -77 46 -90 70 -14 25 -13 31 15 85 17 31 33 59 38 60 4 2 7 8 7 14 0 6 33 65 74 133 41 67 77 132 81 144 3 11 11 21 16 21 5 0 9 5 9 11 0 6 27 55 59 109 32 53 62 107 66 119 3 11 11 21 16 21 5 0 9 5 9 11 0 6 26 55 58 108 31 53 68 118 82 144 13 26 28 47 32 47 5 0 8 5 8 11 0 10 63 123 100 179 6 8 14 24 19 35 8 19 106 186 131 225 6 8 14 24 19 35 8 19 108 189 131 225 6 8 15 27 21 43 6 15 15 27 20 27 5 0 9 5 9 11 0 9 60 117 100 179 5 8 17 29 26 45 39 71 59 78 121 44z m778 2 c114 -50 118 -57 74 -138 -41 -76 -67 -103 -99 -103 -43 0 -119 65 -120 102 0 36 89 164 109 155 3 -2 20 -9 36 -16z m520 -291 c4 -6 22 -17 41 -25 19 -8 39 -25 46 -40 10 -23 6 -32 -38 -98 -38 -55 -56 -73 -76 -75 -32 -4 -98 36 -116 70 -12 22 -10 31 18 84 18 32 39 67 48 77 16 18 67 23 77 7z m-2723 -42 c24 -12 46 -27 50 -32 24 -34 -17 -116 -57 -116 -28 0 -92 45 -100 71 -7 21 36 99 55 99 5 0 29 -10 52 -22z m3617 -3 c31 -15 41 -33 41 -70 0 -56 -62 -57 -105 -1 -25 33 -26 36 -10 60 20 30 34 32 74 11z m323 -48 c7 -7 24 -18 38 -24 14 -7 48 -26 75 -43 28 -16 62 -35 76 -40 41 -17 55 -51 35 -86 -8 -16 -20 -41 -27 -56 -6 -16 -15 -28 -20 -28 -5 0 -9 -5 -9 -12 0 -6 -19 -40 -42 -75 -52 -78 -68 -80 -162 -18 -37 24 -76 47 -87 50 -10 4 -19 11 -19 16 0 5 -5 9 -12 9 -14 0 -58 40 -58 53 0 5 20 43 45 84 25 40 45 77 45 82 0 4 8 18 18 29 9 12 25 33 35 47 19 27 48 32 69 12z m-4087 -97 c36 -22 68 -40 71 -40 3 0 72 -40 153 -88 80 -48 153 -91 161 -95 8 -4 42 -23 75 -42 33 -19 70 -40 83 -45 43 -19 102 -77 102 -103 0 -9 -10 -34 -23 -55 -12 -20 -47 -85 -76 -144 -30 -60 -58 -108 -63 -108 -4 0 -8 -4 -8 -10 0 -5 -24 -50 -52 -100 -29 -50 -65 -113 -80 -141 -85 -153 -96 -158 -195 -104 -38 21 -90 50 -118 65 -42 23 -148 85 -205 120 -8 5 -34 19 -58 31 -23 11 -48 26 -55 33 -18 15 -76 46 -89 46 -22 0 -128 72 -128 87 0 13 57 117 100 183 6 8 14 24 19 36 5 11 27 50 48 85 22 35 42 71 46 79 4 8 23 42 41 75 19 33 45 80 59 105 49 93 105 170 122 170 2 0 34 -18 70 -40z m404 3 c3 -5 14 -12 24 -16 23 -9 21 -40 -5 -87 -28 -48 -48 -50 -103 -12 -49 34 -53 52 -24 98 21 34 25 36 62 31 22 -3 43 -10 46 -14z m-2834 -69 c28 -18 33 -55 10 -74 -8 -7 -15 -18 -15 -25 0 -6 -9 -22 -20 -35 -11 -13 -20 -27 -20 -31 0 -20 -104 -179 -121 -184 -29 -10 -99 35 -99 64 0 13 27 68 60 123 33 54 60 101 60 104 0 7 43 68 55 77 14 10 60 1 90 -19z m3045 -54 c0 -5 5 -10 12 -10 19 0 78 -44 78 -58 0 -25 -31 -73 -53 -81 -28 -11 -74 3 -103 30 -21 20 -21 23 -8 55 8 19 22 43 32 53 19 21 42 27 42 11z m2623 -14 c38 -29 5 -126 -43 -126 -15 1 -32 10 -43 25 -16 23 -16 27 -2 62 23 54 51 67 88 39z m378 -23 c16 -10 29 -25 29 -34 0 -16 -62 -79 -77 -79 -4 0 -22 10 -40 23 -42 28 -40 53 6 84 41 28 45 28 82 6z m807 -331 c18 -23 15 -37 -13 -70 -34 -41 -62 -46 -90 -17 -29 28 -24 56 17 90 32 27 63 26 86 -3z m-6532 -88 c59 -24 99 -58 129 -110 26 -44 27 -53 22 -131 l-5 -83 65 -37 66 -36 16 22 c10 13 26 39 37 59 10 21 31 56 47 78 15 23 27 45 27 49 0 6 94 168 106 184 7 9 53 -11 77 -33 32 -30 28 -52 -30 -146 -21 -36 -42 -72 -46 -80 -4 -8 -11 -22 -16 -30 -48 -75 -141 -240 -141 -248 0 -5 -12 -13 -26 -16 -19 -5 -44 5 -108 44 -46 27 -89 50 -95 50 -6 0 -11 4 -11 8 0 4 -12 13 -27 19 -32 14 -107 56 -125 70 -7 6 -44 27 -83 48 -151 82 -175 98 -181 122 -10 36 25 110 65 140 20 15 38 30 41 34 11 16 78 37 116 38 23 1 59 -6 80 -15z m6225 -85 c25 -25 20 -58 -15 -96 -29 -31 -59 -25 -80 15 -12 23 -12 32 1 65 13 31 20 37 44 37 16 0 38 -9 50 -21z m237 -125 c28 -20 29 -61 0 -91 -29 -31 -73 -30 -94 2 -18 28 -13 40 35 82 31 27 31 27 59 7z m-5223 -45 c33 -18 72 -38 87 -46 15 -8 34 -23 42 -35 13 -18 12 -25 -10 -66 -32 -63 -48 -82 -68 -82 -15 0 -140 63 -193 98 -31 19 -29 40 10 106 38 66 49 68 132 25z m470 0 c4 -5 18 -14 31 -19 39 -15 25 -73 -30 -122 -18 -17 -21 -16 -60 7 -50 30 -60 74 -26 118 22 28 72 38 85 16z m-945 -108 c44 -34 28 -131 -21 -131 -51 0 -80 92 -41 131 22 23 32 23 62 0z m1177 -26 c66 -33 77 -73 35 -125 -35 -44 -123 -14 -130 44 -4 29 33 96 52 96 7 0 26 -7 43 -15z m-888 -141 c31 -15 58 -29 61 -33 3 -3 22 -15 43 -25 52 -27 58 -36 47 -77 -28 -95 -77 -106 -186 -40 -87 51 -108 72 -99 100 3 12 11 21 16 21 5 0 9 6 9 14 0 14 37 66 47 66 3 0 31 -12 62 -26z m1150 -11 c54 -35 59 -55 27 -104 -31 -47 -56 -50 -109 -14 -43 30 -46 50 -14 105 26 47 41 49 96 13z m-452 -14 c125 -67 134 -85 87 -164 -34 -59 -53 -63 -112 -27 -27 16 -58 33 -70 36 -12 4 -22 11 -22 16 0 5 -9 12 -20 15 -23 7 -27 43 -9 78 17 32 61 77 76 77 7 0 39 -14 70 -31z m-1964 7 c51 -39 -18 -148 -72 -114 -32 20 -36 52 -11 93 23 38 51 45 83 21z m725 -95 c72 -41 274 -158 307 -178 11 -7 29 -16 40 -22 12 -5 62 -34 111 -64 50 -30 101 -58 112 -61 12 -4 22 -12 22 -17 0 -5 5 -9 11 -9 6 0 48 -22 93 -49 44 -27 106 -62 136 -79 103 -56 120 -67 126 -84 3 -11 -14 -50 -45 -102 -28 -46 -51 -86 -51 -89 0 -3 -38 -69 -85 -147 -47 -78 -85 -144 -85 -147 0 -3 -29 -53 -64 -112 -103 -171 -106 -175 -112 -191 -23 -50 -90 -152 -106 -161 -22 -12 -118 6 -118 22 0 5 -5 9 -11 9 -6 0 -44 19 -83 43 -39 24 -78 46 -86 50 -8 4 -28 16 -45 27 -16 11 -39 24 -50 29 -19 8 -187 107 -225 131 -8 6 -26 15 -40 21 -13 5 -27 13 -30 17 -3 4 -21 15 -40 26 -142 75 -230 121 -256 134 -18 8 -39 30 -48 49 -18 38 -19 34 100 234 35 59 64 112 64 118 0 6 5 11 10 11 6 0 10 5 10 11 0 6 27 56 60 111 33 54 60 101 60 105 0 3 27 50 60 105 33 54 60 102 60 105 0 4 6 14 14 22 8 9 29 45 47 81 35 73 47 90 61 90 5 0 40 -17 76 -39z m-377 -97 c8 -8 21 -14 28 -14 6 0 23 -11 36 -24 29 -29 26 -41 -25 -125 -32 -52 -56 -63 -82 -38 -7 7 -34 26 -60 41 -69 40 -74 50 -52 92 10 20 31 50 46 66 24 25 32 29 60 23 18 -4 40 -13 49 -21z m1410 -71 c19 -9 36 -19 39 -22 3 -3 27 -17 53 -31 27 -14 56 -33 65 -43 15 -17 14 -21 -8 -64 -41 -75 -54 -79 -135 -37 -93 48 -125 72 -125 95 0 21 57 119 69 119 5 0 23 -8 42 -17z m-1631 -228 c7 -8 16 -15 21 -15 11 0 82 -49 91 -63 13 -20 9 -29 -32 -94 l-39 -62 -37 15 c-20 9 -43 22 -51 30 -8 8 -20 14 -26 14 -19 1 -57 37 -57 53 0 9 16 43 36 76 38 64 67 78 94 46z m2107 -5 c14 -11 31 -20 38 -20 16 0 42 -49 30 -58 -6 -4 -21 -28 -35 -54 -13 -27 -28 -48 -31 -48 -4 0 -10 -11 -13 -25 -4 -15 -13 -25 -25 -25 -10 0 -35 11 -55 25 -20 14 -41 25 -46 25 -17 0 -41 47 -33 66 10 28 65 118 77 126 20 14 68 8 93 -12z m276 -160 c43 -28 47 -33 47 -69 0 -22 -7 -46 -15 -55 -8 -8 -15 -19 -15 -25 0 -15 -51 -71 -65 -71 -7 0 -38 14 -69 32 -64 37 -68 50 -31 108 14 22 25 42 25 45 0 15 46 65 59 65 9 0 37 -14 64 -30z m-743 -198 c92 -46 100 -54 100 -89 0 -36 -55 -116 -84 -121 -23 -5 -165 65 -173 84 -3 8 2 25 11 39 9 13 16 30 16 37 0 20 44 78 60 78 8 0 40 -13 70 -28z m1039 -21 c29 -29 13 -69 -40 -103 -25 -16 -27 -15 -55 7 l-29 23 18 35 c29 54 74 70 106 38z m-608 -91 c44 -24 9 -86 -56 -97 -25 -4 -37 0 -54 18 -28 30 -27 43 5 68 29 23 74 27 105 11z m877 -66 c27 -18 31 -84 6 -108 -17 -18 -51 -21 -74 -6 -23 15 -20 98 4 116 25 18 36 18 64 -2z m-527 -114 c30 -17 61 -35 69 -40 119 -71 222 -130 227 -130 3 0 50 -27 105 -60 54 -33 101 -60 105 -60 3 0 50 -27 105 -60 54 -33 101 -60 103 -60 2 0 24 -13 48 -30 25 -16 50 -30 55 -30 6 0 17 -6 24 -12 7 -7 35 -24 62 -38 74 -38 75 -48 18 -143 -28 -45 -59 -98 -71 -117 -12 -19 -26 -47 -32 -62 -6 -16 -15 -28 -20 -28 -5 0 -9 -5 -9 -11 0 -6 -31 -63 -69 -127 -37 -64 -97 -166 -132 -227 -35 -60 -69 -118 -76 -130 -7 -11 -17 -31 -23 -45 -6 -13 -14 -27 -18 -30 -4 -3 -16 -23 -27 -44 -53 -105 -80 -109 -210 -34 -50 28 -99 56 -110 62 -21 12 -86 52 -120 74 -11 6 -29 16 -40 21 -11 5 -73 41 -138 80 -65 39 -120 71 -122 71 -2 0 -24 14 -48 30 -25 17 -48 30 -52 30 -10 0 -225 129 -247 148 -25 21 -22 43 14 109 17 32 44 83 60 113 16 30 33 62 38 70 91 154 129 221 135 239 3 11 11 21 16 21 5 0 9 5 9 11 0 6 22 48 49 93 27 44 57 95 67 113 11 17 43 71 72 118 28 48 52 89 52 93 0 13 45 52 60 52 9 0 41 -14 71 -30z m-963 -26 c109 -58 119 -75 85 -137 -30 -54 -55 -77 -84 -77 -15 0 -29 3 -31 8 -1 4 -25 18 -51 32 -73 38 -90 56 -76 83 22 41 79 127 84 127 3 0 36 -16 73 -36z m1836 -6 c33 -20 56 -40 56 -50 0 -10 -21 -51 -46 -93 -34 -57 -51 -75 -67 -75 -26 0 -116 54 -123 74 -10 27 81 176 108 176 9 0 41 -15 72 -32z m327 -206 c10 -28 -49 -142 -83 -161 -23 -14 -30 -12 -81 13 -71 36 -82 59 -51 108 13 21 24 40 24 44 0 15 44 60 63 65 28 8 118 -41 128 -69z m-1709 56 c7 -7 31 -22 53 -33 21 -11 51 -30 67 -43 l27 -23 -29 -55 c-17 -30 -40 -71 -53 -92 -13 -20 -27 -46 -31 -58 -3 -12 -17 -26 -30 -32 -19 -9 -34 -3 -100 35 -85 51 -104 73 -81 97 8 8 15 17 15 21 0 17 107 185 120 188 26 8 28 7 42 -5z m-1373 -158 c55 -26 74 -59 53 -89 -7 -9 -18 -29 -25 -46 -20 -44 -66 -95 -85 -95 -32 1 -97 54 -100 82 -3 28 60 163 81 171 15 7 13 7 76 -23z m3277 -48 c16 -10 34 -48 34 -70 0 -10 -9 -27 -21 -37 -19 -18 -22 -18 -47 -3 -42 25 -59 60 -44 92 8 19 19 26 39 26 16 0 33 -4 39 -8z m-3054 -79 c21 -9 38 -20 38 -24 0 -4 11 -10 25 -13 26 -7 46 -53 27 -65 -5 -3 -20 -25 -32 -49 -27 -52 -75 -102 -98 -102 -27 1 -97 54 -100 76 -3 18 20 66 74 161 11 18 21 33 23 33 2 0 22 -8 43 -17z m3424 -114 c46 -28 84 -56 84 -63 0 -22 -21 -76 -30 -76 -4 0 -11 -11 -14 -25 -9 -34 -49 -53 -72 -34 -20 16 -43 29 -117 66 -74 36 -78 53 -31 126 48 74 67 75 180 6z m-2826 -6 c35 -45 5 -113 -52 -113 -34 0 -53 37 -44 84 13 62 59 76 96 29z m260 -145 c27 -29 25 -41 -11 -77 -37 -38 -80 -41 -101 -8 -17 26 -6 54 32 87 30 26 54 25 80 -2z m1840 -24 c68 -41 84 -63 75 -103 -9 -40 -62 -101 -89 -101 -21 0 -85 26 -96 39 -3 4 -17 12 -32 18 -35 16 -35 24 2 97 52 102 52 102 140 50z m1084 -30 c24 -23 19 -60 -11 -89 -36 -32 -75 -33 -92 -1 -11 20 -10 28 5 52 34 55 68 68 98 38z m-517 -107 c40 -23 73 -48 73 -55 0 -17 -28 -72 -48 -94 -26 -30 -69 -21 -158 33 -46 27 -85 53 -88 57 -2 4 4 23 14 42 11 19 23 45 29 57 17 37 42 44 76 22 17 -10 63 -38 102 -62z m-434 -314 c57 -31 97 -64 97 -80 0 -8 -16 -42 -36 -74 -43 -71 -54 -73 -138 -22 -90 54 -92 60 -46 141 26 44 35 52 60 52 17 0 45 -8 63 -17z m-1499 -74 c28 -18 54 -37 58 -43 8 -11 1 -47 -11 -56 -3 -3 -16 -23 -27 -45 -12 -22 -33 -46 -47 -54 -23 -14 -29 -13 -73 10 -66 34 -76 63 -44 126 28 57 59 93 78 93 8 0 38 -14 66 -31z m966 -80 c0 -5 6 -9 13 -9 6 0 33 -14 60 -30 58 -37 61 -64 14 -135 -39 -60 -61 -66 -116 -31 -22 14 -44 26 -48 26 -4 0 -17 10 -30 22 -23 21 -30 43 -15 50 4 2 17 24 30 50 13 26 33 54 44 62 20 15 48 12 48 -5z m-725 -59 c74 -43 83 -55 61 -88 -9 -15 -22 -39 -27 -54 -6 -16 -15 -28 -19 -28 -5 0 -12 -9 -15 -20 -9 -28 -56 -26 -111 6 -62 36 -65 59 -18 136 55 91 54 91 129 48z m1676 -27 c46 -28 51 -75 9 -101 -22 -13 -43 -6 -87 32 -25 21 -28 38 -13 67 13 24 52 25 91 2z m-498 -101 c23 -20 22 -21 -15 -86 -45 -75 -60 -80 -128 -44 -100 54 -109 76 -64 154 39 66 48 68 124 27 36 -19 73 -42 83 -51z"/> <path d="M10788 6476 c-10 -14 -18 -28 -18 -32 0 -3 -27 -51 -60 -106 -33 -54 -60 -102 -60 -105 0 -3 -21 -39 -46 -81 -25 -41 -42 -78 -37 -82 18 -15 161 -98 181 -104 12 -4 22 -12 22 -17 0 -5 5 -9 11 -9 6 0 52 -25 103 -55 50 -30 99 -55 108 -55 10 0 31 25 50 58 18 31 38 66 45 77 6 11 24 44 39 73 15 28 31 52 36 52 4 0 8 5 8 11 0 7 13 34 30 60 48 78 48 94 3 122 -73 46 -128 77 -155 88 -16 6 -28 15 -28 19 0 4 -11 11 -25 14 -14 4 -25 11 -25 16 0 6 -5 10 -11 10 -7 0 -34 13 -60 30 -69 42 -90 45 -111 16z"/> <path d="M7322 5744 c-86 -68 -119 -202 -68 -282 22 -35 85 -92 102 -92 3 0 39 -19 78 -42 39 -24 94 -54 121 -68 28 -14 52 -27 55 -30 3 -3 28 -16 55 -29 28 -14 66 -34 85 -46 19 -12 64 -38 100 -57 36 -20 84 -47 108 -59 l42 -24 38 40 c61 64 162 242 162 285 0 12 -14 28 -38 42 -21 13 -47 29 -57 36 -11 7 -32 17 -47 23 -16 6 -28 15 -28 20 0 5 -5 9 -11 9 -6 0 -45 20 -86 45 -40 25 -76 45 -79 45 -4 0 -43 22 -88 49 -44 26 -88 51 -96 54 -8 4 -37 20 -65 36 -103 62 -127 71 -189 71 -50 0 -67 -5 -94 -26z m155 -77 c45 -25 220 -132 280 -171 34 -23 105 -68 158 -101 53 -33 103 -66 111 -73 20 -19 17 -57 -8 -102 -18 -31 -29 -40 -50 -40 -14 0 -28 3 -30 8 -1 4 -73 41 -158 83 -85 42 -213 104 -284 139 -158 78 -186 100 -186 146 0 85 97 150 167 111z"/> <path d="M6875 4925 c-41 -21 -92 -80 -100 -116 -4 -16 -11 -31 -16 -34 -15 -10 -10 -90 8 -126 25 -51 37 -60 168 -138 66 -39 127 -76 135 -81 8 -6 24 -14 35 -19 11 -5 107 -61 213 -125 l193 -116 29 22 c17 12 32 30 36 40 3 10 10 18 15 18 5 0 9 5 9 11 0 6 21 46 46 88 40 64 47 84 48 130 1 54 1 54 -44 79 -25 14 -46 29 -48 33 -2 5 -9 9 -16 9 -7 0 -31 13 -52 28 -21 16 -111 71 -199 124 -140 84 -203 120 -305 175 -33 17 -118 16 -155 -2z m140 -92 c19 -9 35 -19 35 -23 0 -3 20 -16 45 -30 25 -14 45 -28 45 -32 0 -5 6 -8 14 -8 8 0 21 -6 28 -12 7 -7 60 -44 118 -83 58 -38 107 -72 110 -75 3 -3 38 -27 77 -53 80 -53 91 -72 74 -135 -17 -62 -56 -68 -141 -21 -30 17 -95 52 -145 78 -85 45 -129 69 -262 143 -32 17 -74 39 -93 49 -61 30 -75 56 -71 137 1 13 15 37 32 53 36 34 80 38 134 12z"/> <path d="M8062 4806 c-11 -18 -23 -43 -26 -54 -7 -22 -40 -38 -66 -33 -8 1 -36 16 -62 32 l-48 29 -6 -25 c-9 -36 -1 -49 48 -82 47 -31 60 -69 34 -96 -21 -20 -20 -53 0 -61 21 -8 38 7 54 44 10 23 19 30 41 30 15 0 31 -5 34 -11 4 -5 17 -15 28 -20 12 -5 41 -20 64 -33 39 -22 43 -23 57 -7 21 23 20 50 -1 58 -10 3 -31 16 -48 28 -16 12 -40 25 -51 29 -12 3 -29 15 -38 25 -17 18 -16 21 7 58 33 52 40 79 27 103 -15 28 -25 25 -48 -14z"/> <path d="M11692 5569 c-29 -5 -70 -20 -91 -33 -38 -24 -111 -104 -111 -122 0 -5 -7 -22 -16 -39 -11 -20 -16 -56 -16 -106 0 -63 5 -86 27 -129 32 -63 84 -115 144 -143 81 -38 232 -24 299 28 103 80 146 193 122 319 -10 56 -19 72 -65 123 -82 91 -171 122 -293 102z"/> <path d="M10340 4678 c-11 -12 -20 -26 -20 -31 0 -5 -27 -54 -60 -109 -33 -54 -60 -101 -60 -105 0 -3 -26 -49 -58 -102 -32 -53 -61 -103 -65 -111 -4 -8 -16 -28 -27 -45 -11 -16 -25 -42 -31 -57 -6 -16 -15 -28 -20 -28 -5 0 -9 -5 -9 -11 0 -6 -27 -56 -60 -111 -33 -54 -60 -101 -60 -105 0 -3 -34 -61 -75 -130 -41 -68 -75 -127 -75 -130 0 -3 -29 -53 -64 -112 -102 -170 -105 -175 -115 -196 -5 -11 -41 -73 -80 -138 -65 -109 -121 -207 -159 -281 -17 -33 -10 -50 28 -71 26 -14 167 -96 230 -134 19 -11 44 -25 55 -30 19 -8 187 -107 225 -131 8 -6 24 -14 35 -19 11 -5 73 -41 138 -80 65 -39 120 -71 124 -71 3 0 61 -34 130 -75 68 -41 127 -75 130 -75 3 0 54 -29 113 -65 59 -36 113 -65 119 -65 6 0 11 -4 11 -10 0 -5 5 -10 11 -10 6 0 45 -20 86 -45 40 -25 78 -45 83 -45 5 0 15 -6 22 -12 7 -7 35 -24 61 -38 26 -13 47 -28 47 -32 0 -5 5 -8 11 -8 10 0 123 -63 179 -100 8 -6 24 -14 35 -19 12 -5 62 -34 111 -64 50 -30 101 -58 112 -61 12 -4 22 -12 22 -17 0 -5 5 -9 11 -9 9 0 82 -40 179 -100 8 -5 39 -21 68 -36 28 -15 52 -31 52 -36 0 -4 5 -8 11 -8 7 0 34 -14 61 -31 28 -16 59 -29 70 -27 18 3 53 50 77 104 8 19 76 135 101 174 6 8 14 24 19 35 5 11 40 72 78 135 38 63 72 122 76 130 4 8 16 29 27 45 11 17 24 39 29 50 5 12 34 62 64 111 30 50 58 101 61 112 4 12 12 22 17 22 5 0 9 5 9 11 0 6 26 55 58 108 31 53 69 117 82 144 14 26 28 47 32 47 5 0 8 5 8 11 0 10 64 124 100 179 6 8 13 22 17 30 3 8 35 63 69 121 35 59 64 112 64 118 0 6 5 11 10 11 6 0 10 5 10 11 0 7 14 34 30 61 46 74 42 86 -47 138 -43 25 -86 49 -97 53 -11 4 -23 11 -26 15 -3 4 -16 13 -30 19 -14 7 -47 26 -75 43 -27 16 -62 35 -77 41 -16 6 -28 14 -28 18 0 4 -21 18 -47 31 -27 13 -88 48 -136 77 -48 29 -90 53 -93 53 -4 0 -43 22 -88 49 -44 27 -97 58 -116 70 -19 12 -47 26 -62 32 -16 6 -28 15 -28 20 0 5 -5 9 -11 9 -10 0 -124 64 -179 100 -8 6 -26 16 -40 22 -24 12 -138 78 -170 98 -8 5 -36 21 -62 35 -43 23 -213 122 -248 145 -8 6 -24 14 -35 19 -12 5 -63 34 -113 65 -51 31 -95 56 -98 56 -4 0 -61 33 -128 73 -67 39 -143 83 -169 97 -26 13 -47 28 -47 32 0 5 -5 8 -11 8 -6 0 -44 19 -83 43 -39 24 -78 46 -86 50 -8 4 -39 20 -67 37 l-53 30 -20 -22z m129 -162 c65 -43 175 -105 239 -135 17 -8 32 -19 32 -23 0 -4 5 -8 11 -8 6 0 56 -27 111 -60 54 -33 102 -60 105 -60 10 0 128 -74 131 -82 2 -4 8 -8 14 -8 6 0 44 -20 85 -45 40 -25 76 -45 79 -45 7 0 177 -101 184 -110 3 -3 16 -11 30 -17 34 -17 96 -53 147 -86 24 -15 45 -27 49 -27 3 0 43 -22 88 -49 44 -27 108 -63 141 -81 98 -53 140 -84 143 -108 2 -12 -10 -45 -27 -72 -17 -28 -31 -52 -31 -55 0 -2 -13 -24 -30 -48 -16 -25 -30 -48 -30 -52 0 -4 -33 -62 -74 -130 -41 -67 -77 -132 -81 -144 -3 -11 -11 -21 -16 -21 -5 0 -9 -5 -9 -11 0 -6 -34 -67 -75 -136 -41 -68 -75 -127 -75 -130 0 -5 -76 -136 -100 -173 -6 -8 -15 -27 -21 -42 -6 -16 -15 -28 -19 -28 -4 0 -11 -11 -14 -25 -4 -14 -11 -25 -16 -25 -6 0 -10 -5 -10 -11 0 -6 -31 -63 -69 -127 -67 -114 -179 -309 -213 -371 -10 -17 -25 -34 -33 -38 -19 -7 -75 20 -198 94 -48 29 -90 53 -94 53 -3 0 -38 19 -77 43 -39 23 -89 51 -111 62 -38 18 -125 67 -295 166 -41 23 -91 51 -111 61 -40 19 -55 51 -33 72 8 8 14 18 14 22 0 6 72 131 100 174 6 8 13 22 17 30 3 8 27 51 54 95 76 127 76 122 -33 187 -51 31 -118 69 -148 85 -50 28 -174 100 -210 123 -8 6 -26 15 -40 21 -13 5 -27 13 -30 17 -11 15 -50 31 -62 27 -7 -3 -27 -29 -43 -57 -91 -158 -195 -330 -222 -365 -13 -18 -30 -33 -38 -33 -7 0 -38 15 -69 33 -65 38 -68 50 -26 119 17 26 30 51 30 54 0 4 27 50 59 104 32 53 62 107 66 119 3 11 11 21 16 21 5 0 9 5 9 11 0 6 34 67 75 136 41 68 75 127 75 130 0 3 33 60 74 128 41 67 77 132 81 144 3 11 11 21 16 21 5 0 9 5 9 11 0 6 20 45 45 86 25 40 45 76 45 78 0 2 13 23 29 47 16 24 32 53 35 66 4 12 12 22 17 22 5 0 9 5 9 11 0 6 20 45 45 86 25 40 45 78 45 83 0 5 6 15 13 22 6 7 27 45 46 83 51 105 71 135 88 135 8 0 45 -20 82 -44z m2094 -1263 c28 -15 54 -29 57 -32 3 -4 25 -17 50 -30 75 -39 93 -57 85 -88 -8 -36 -85 -163 -108 -177 -13 -8 -27 -5 -64 14 -27 14 -50 28 -53 31 -3 3 -12 9 -20 12 -8 4 -28 16 -45 27 -16 11 -42 25 -57 31 -35 14 -37 45 -5 97 12 20 33 58 47 84 13 26 31 49 40 52 8 2 16 4 18 5 1 0 26 -11 55 -26z m-2605 -190 c26 -16 56 -33 67 -40 11 -7 32 -17 48 -24 15 -6 27 -15 27 -20 0 -5 5 -9 11 -9 6 0 42 -19 80 -41 48 -29 69 -47 69 -61 0 -19 -146 -273 -178 -310 -8 -10 -25 -18 -37 -18 -23 0 -81 26 -90 40 -3 5 -19 11 -35 15 -17 4 -30 11 -30 16 0 5 -5 9 -12 9 -16 0 -166 101 -172 116 -5 12 33 98 45 102 5 2 9 8 9 14 0 6 20 44 45 84 24 41 47 85 51 99 5 21 38 55 52 55 2 0 24 -12 50 -27z"/> <path d="M940 6833 c-54 -34 -75 -73 -75 -139 0 -71 20 -101 89 -135 37 -17 65 -19 352 -19 285 0 316 2 357 19 61 26 91 71 91 137 0 58 -32 112 -84 139 -44 23 -693 21 -730 -2z"/> <path d="M2060 6832 c-57 -38 -80 -79 -80 -139 0 -39 6 -56 31 -86 57 -69 36 -67 689 -67 504 0 593 2 624 15 47 20 66 40 90 93 17 38 18 46 6 83 -18 53 -42 84 -82 103 -27 14 -108 16 -642 15 -557 0 -613 -2 -636 -17z"/> <path d="M3602 6827 c-52 -35 -67 -65 -67 -134 0 -55 3 -65 30 -93 61 -64 -50 -60 1639 -60 l1541 1 45 22 c73 36 111 129 78 190 -21 37 -51 67 -82 82 -25 13 -234 15 -1590 14 l-1561 0 -33 -22z"/> <path d="M4118 6193 c-60 -3 -71 -7 -99 -35 -17 -17 -35 -42 -40 -55 -21 -56 -2 -139 41 -178 22 -20 42 -20 1088 -23 l1065 -2 33 22 c43 30 54 56 54 130 0 58 -2 63 -40 100 l-41 38 -977 0 c-537 0 -986 2 -997 3 -11 2 -50 2 -87 0z"/> <path d="M1080 6169 c-45 -38 -60 -70 -60 -130 0 -49 4 -60 34 -95 l34 -39 219 0 c240 0 233 -2 276 67 37 59 11 162 -50 198 -31 18 -52 20 -231 20 -184 -1 -199 -2 -222 -21z"/> <path d="M1869 6160 c-71 -58 -72 -169 -2 -230 l34 -30 356 0 c343 0 357 1 389 21 19 11 34 26 34 34 0 7 7 18 15 25 24 20 19 94 -9 138 -47 74 -34 72 -428 72 l-353 0 -36 -30z"/> <path d="M2974 6156 l-39 -34 0 -77 c0 -76 0 -77 37 -111 l38 -34 385 0 385 0 36 33 c66 60 64 171 -5 227 l-36 30 -381 0 -381 0 -39 -34z"/> <path d="M810 5356 c-52 -19 -89 -78 -90 -144 0 -49 3 -55 45 -97 l44 -45 629 0 c576 0 630 1 652 17 103 71 108 188 11 254 l-35 24 -610 2 c-473 1 -619 -1 -646 -11z"/> <path d="M2455 5358 c-73 -25 -112 -100 -94 -179 10 -42 26 -64 71 -92 23 -14 54 -17 182 -17 138 0 159 2 189 20 101 60 81 235 -31 268 -48 15 -275 14 -317 0z"/> <path d="M3150 5356 c-49 -18 -89 -78 -90 -134 0 -53 20 -93 63 -126 l34 -26 1206 0 c1113 0 1209 1 1242 17 100 48 100 212 0 263 -26 13 -185 15 -1225 17 -942 1 -1202 -1 -1230 -11z"/> <path d="M1302 4462 c-49 -27 -72 -72 -72 -141 0 -54 3 -62 34 -95 21 -21 49 -38 73 -43 21 -4 196 -8 388 -8 388 0 407 3 451 61 52 67 29 180 -45 225 -30 18 -55 19 -414 19 -344 -1 -385 -3 -415 -18z"/> <path d="M2426 4461 c-87 -51 -102 -180 -28 -248 37 -35 132 -46 347 -41 206 5 240 12 279 65 50 68 21 191 -53 226 -33 15 -69 17 -277 16 -207 0 -243 -3 -268 -18z"/> <path d="M3265 4452 c-50 -35 -65 -64 -65 -126 0 -67 36 -121 94 -138 32 -10 290 -13 1151 -13 1090 0 1111 0 1150 20 113 57 115 196 3 268 -26 16 -101 17 -1160 17 l-1133 -1 -40 -27z"/> <path d="M2252 3582 c-135 -17 -186 -169 -87 -260 l36 -33 210 3 209 3 32 34 c61 65 47 186 -28 230 -29 17 -57 21 -177 25 -78 2 -166 1 -195 -2z"/> <path d="M2954 3581 c-42 -4 -81 -13 -98 -24 -28 -19 -66 -93 -66 -128 0 -27 33 -90 60 -114 22 -20 36 -20 729 -20 693 0 707 0 727 20 39 39 54 74 54 125 0 46 -4 54 -44 94 -42 42 -47 44 -112 48 -118 6 -1175 6 -1250 -1z"/> <path d="M4620 3583 c-63 -4 -107 -24 -135 -62 -15 -20 -20 -41 -19 -90 0 -62 2 -65 42 -102 l41 -39 522 0 c501 0 523 1 553 20 42 26 61 63 61 120 0 57 -27 110 -69 135 -29 18 -59 19 -486 20 -250 1 -480 0 -510 -2z"/> <path d="M1390 2682 c-40 -19 -63 -40 -81 -74 -34 -65 -20 -124 41 -183 31 -30 32 -30 171 -33 178 -5 198 -1 248 49 38 38 41 46 41 94 0 59 -18 99 -59 130 -23 18 -44 20 -186 22 -88 1 -167 -1 -175 -5z"/> <path d="M2125 2683 c-11 -3 -35 -21 -52 -40 -30 -32 -33 -42 -33 -95 0 -66 15 -101 58 -133 25 -19 45 -20 347 -23 176 -2 339 -1 362 3 28 4 54 17 80 41 37 34 38 37 38 104 0 67 -1 71 -38 107 l-37 38 -353 2 c-193 0 -361 -1 -372 -4z"/> <path d="M3230 2677 c-42 -21 -79 -86 -80 -139 0 -41 5 -52 44 -95 l44 -48 1258 0 c1243 0 1259 0 1286 20 43 32 58 67 58 135 0 57 -3 64 -36 98 l-36 37 -1256 2 c-990 2 -1262 0 -1282 -10z"/> <path d="M262 1791 c-40 -5 -59 -14 -84 -38 -61 -61 -46 -190 26 -234 28 -17 53 -19 228 -19 l197 0 41 38 c39 38 40 41 40 105 0 57 -4 70 -27 98 -43 51 -75 59 -230 58 -76 -1 -162 -5 -191 -8z"/> <path d="M954 1786 c-16 -7 -43 -26 -60 -41 -26 -25 -29 -33 -29 -93 0 -51 5 -73 20 -93 46 -61 21 -59 669 -59 l593 0 34 23 c45 30 59 60 59 129 0 47 -5 62 -27 89 -51 60 -38 59 -660 59 -451 -1 -574 -4 -599 -14z"/> <path d="M2480 1787 c-14 -6 -38 -25 -55 -41 -27 -27 -30 -35 -30 -95 0 -73 17 -105 68 -135 26 -14 98 -16 707 -16 609 0 681 2 707 16 49 29 66 61 67 129 1 52 -3 67 -26 96 -16 22 -41 40 -66 47 -55 17 -1336 16 -1372 -1z"/> <path d="M4146 1788 c-87 -32 -122 -137 -72 -216 49 -78 -49 -72 1128 -72 1013 0 1054 1 1084 19 45 28 68 82 61 149 -7 67 -39 105 -102 121 -60 15 -2058 14 -2099 -1z"/> <path d="M1375 973 c-62 -16 -105 -76 -105 -148 0 -59 20 -97 65 -125 31 -19 47 -22 120 -19 77 4 86 6 115 34 61 59 61 163 -2 224 -37 36 -123 51 -193 34z"/> <path d="M1823 973 c-49 -6 -113 -83 -113 -136 0 -49 26 -107 60 -133 24 -18 47 -19 392 -19 l367 0 31 30 c17 16 33 41 37 55 3 14 10 30 15 37 15 18 -21 103 -56 134 -16 15 -46 30 -65 33 -39 6 -616 5 -668 -1z"/> <path d="M2810 973 c-14 -2 -44 -25 -67 -49 -38 -40 -43 -50 -43 -93 0 -38 7 -57 30 -90 17 -23 43 -46 58 -52 15 -6 93 -9 187 -7 142 3 163 5 187 23 79 59 75 182 -7 247 -27 21 -39 23 -175 25 -80 1 -156 -1 -170 -4z"/> <path d="M3508 973 c-39 -6 -91 -60 -107 -110 -12 -37 -12 -46 3 -76 9 -19 16 -39 16 -45 0 -5 17 -21 38 -36 l38 -26 1717 2 1718 3 34 37 c33 35 35 41 35 106 0 65 -2 70 -35 104 -23 23 -49 38 -73 42 -41 6 -3340 6 -3384 -1z"/> </g> </svg> 